<?xml version="1.0" encoding="UTF-8" standalone="no"?>
<!-- Created with Inkscape (http://www.inkscape.org/) -->

<svg
   xmlns:dc="http://purl.org/dc/elements/1.1/"
   xmlns:cc="http://creativecommons.org/ns#"
   xmlns:rdf="http://www.w3.org/1999/02/22-rdf-syntax-ns#"
   xmlns:svg="http://www.w3.org/2000/svg"
   xmlns="http://www.w3.org/2000/svg"
   xmlns:sodipodi="http://sodipodi.sourceforge.net/DTD/sodipodi-0.dtd"
   xmlns:inkscape="http://www.inkscape.org/namespaces/inkscape"
   width="771.34796"
   height="235.78273"
   id="svg3302"
   version="1.1"
   inkscape:version="0.47 r22583"
   sodipodi:docname="Nuevo documento 1">
  <defs
     id="defs3304">
    <inkscape:perspective
       sodipodi:type="inkscape:persp3d"
       inkscape:vp_x="0 : 526.18109 : 1"
       inkscape:vp_y="0 : 1000 : 0"
       inkscape:vp_z="744.09448 : 526.18109 : 1"
       inkscape:persp3d-origin="372.04724 : 350.78739 : 1"
       id="perspective3310" />
    <inkscape:perspective
       id="perspective3320"
       inkscape:persp3d-origin="0.5 : 0.33333333 : 1"
       inkscape:vp_z="1 : 0.5 : 1"
       inkscape:vp_y="0 : 1000 : 0"
       inkscape:vp_x="0 : 0.5 : 1"
       sodipodi:type="inkscape:persp3d" />
    <inkscape:perspective
       id="perspective3558"
       inkscape:persp3d-origin="0.5 : 0.33333333 : 1"
       inkscape:vp_z="1 : 0.5 : 1"
       inkscape:vp_y="0 : 1000 : 0"
       inkscape:vp_x="0 : 0.5 : 1"
       sodipodi:type="inkscape:persp3d" />
    <inkscape:perspective
       id="perspective3827"
       inkscape:persp3d-origin="0.5 : 0.33333333 : 1"
       inkscape:vp_z="1 : 0.5 : 1"
       inkscape:vp_y="0 : 1000 : 0"
       inkscape:vp_x="0 : 0.5 : 1"
       sodipodi:type="inkscape:persp3d" />
    <inkscape:perspective
       id="perspective4195"
       inkscape:persp3d-origin="0.5 : 0.33333333 : 1"
       inkscape:vp_z="1 : 0.5 : 1"
       inkscape:vp_y="0 : 1000 : 0"
       inkscape:vp_x="0 : 0.5 : 1"
       sodipodi:type="inkscape:persp3d" />
  </defs>
  <sodipodi:namedview
     id="base"
     pagecolor="#ffffff"
     bordercolor="#666666"
     borderopacity="1.0"
     inkscape:pageopacity="0.0"
     inkscape:pageshadow="2"
     inkscape:zoom="1"
     inkscape:cx="364.53764"
     inkscape:cy="124.03012"
     inkscape:document-units="px"
     inkscape:current-layer="layer1"
     showgrid="false"
     inkscape:window-width="1280"
     inkscape:window-height="950"
     inkscape:window-x="0"
     inkscape:window-y="24"
     inkscape:window-maximized="1" />
  <metadata
     id="metadata3307">
    <rdf:RDF>
      <cc:Work
         rdf:about="">
        <dc:format>image/svg+xml</dc:format>
        <dc:type
           rdf:resource="http://purl.org/dc/dcmitype/StillImage" />
        <dc:title></dc:title>
      </cc:Work>
    </rdf:RDF>
  </metadata>
  <g
     inkscape:label="Capa 1"
     inkscape:groupmode="layer"
     id="layer1"
     transform="translate(113.58021,-763.46671)">
    <g
       id="g3806"
       transform="translate(0,13.82341)">
      <path
         id="rect4350"
         d="m 924.77384,324.00217 c 5.90446,0 10.65787,5.72169 10.65787,12.82892 l 0,23.82513 c 0,7.10722 -4.75341,12.82892 -10.65787,12.82892 -5.90446,0 -10.65787,-5.7217 -10.65787,-12.82892 l 0,-23.82513 c 0,-7.10723 4.75341,-12.82892 10.65787,-12.82892 z"
         style="fill:#003380;fill-opacity:1;fill-rule:nonzero;stroke:none"
         transform="matrix(0.69200888,0.72188899,-0.72188899,0.69200888,0,0)" />
      <path
         id="rect4352"
         d="m 325.33802,949.32086 c 5.90446,0 10.65787,5.7217 10.65787,12.82892 l 0,23.82513 c 0,7.10722 -4.75341,12.82892 -10.65787,12.82892 -5.90446,0 -10.65787,-5.7217 -10.65787,-12.82892 l 0,-23.82513 c 0,-7.10722 4.75341,-12.82892 10.65787,-12.82892 z"
         style="fill:#003380;fill-opacity:1;fill-rule:nonzero;stroke:none"
         transform="matrix(-0.69200888,0.72188899,0.72188899,0.69200888,0,0)" />
      <path
         id="rect4354"
         d="m 394.28769,879.22784 77.65021,0 0,73.08255 -77.65021,0 0,-73.08255 z"
         style="fill:#003380;fill-opacity:1;fill-rule:nonzero;stroke:none" />
      <path
         id="rect4356"
         d="m 404.94556,935.94305 c 5.90446,0 10.65787,5.7217 10.65787,12.82892 l 0,23.82514 c 0,7.10722 -4.75341,12.82892 -10.65787,12.82892 -5.90446,0 -10.65787,-5.7217 -10.65787,-12.82892 l 0,-23.82514 c 0,-7.10722 4.75341,-12.82892 10.65787,-12.82892 z"
         style="fill:#003380;fill-opacity:1;fill-rule:nonzero;stroke:none" />
      <path
         id="rect4364"
         d="m 461.27997,935.94305 c 5.90446,0 10.65787,5.7217 10.65787,12.82892 l 0,23.82514 c 0,7.10722 -4.75341,12.82892 -10.65787,12.82892 -5.90446,0 -10.65787,-5.7217 -10.65787,-12.82892 l 0,-23.82514 c 0,-7.10722 4.75341,-12.82892 10.65787,-12.82892 z"
         style="fill:#003380;fill-opacity:1;fill-rule:nonzero;stroke:none" />
      <path
         id="path4372"
         d="m -88.305283,337.5892 c 0,74.41578 -59.303437,134.74169 -132.457927,134.74169 -73.1545,0 -132.45794,-60.32591 -132.45794,-134.74169 0,-74.41577 59.30344,-134.74168 132.45794,-134.74168 73.15449,0 132.457927,60.32591 132.457927,134.74168 z"
         style="fill:#784421;fill-opacity:1;fill-rule:nonzero;stroke:none"
         transform="matrix(0.46382221,-0.0505946,0.04973705,0.45596081,519.79338,673.15099)" />
      <path
         id="path4360"
         d="m -88.305283,337.5892 c 0,74.41578 -59.303437,134.74169 -132.457927,134.74169 -73.1545,0 -132.45794,-60.32591 -132.45794,-134.74169 0,-74.41577 59.30344,-134.74168 132.45794,-134.74168 73.15449,0 132.457927,60.32591 132.457927,134.74168 z"
         style="fill:#d38d5f;fill-opacity:1;fill-rule:nonzero;stroke:none"
         transform="matrix(0.37749028,0,0,0.37109213,516.82938,732.11688)" />
      <path
         id="path4366"
         d="m 175.08806,369.5618 c 0,4.62471 -4.08989,8.37377 -9.13503,8.37377 -5.04513,0 -9.13503,-3.74906 -9.13503,-8.37377 0,-4.62471 4.0899,-8.37378 9.13503,-8.37378 5.04514,0 9.13503,3.74907 9.13503,8.37378 z"
         style="fill:#000000;fill-opacity:1;fill-rule:nonzero;stroke:none"
         transform="matrix(0.41051987,0,0,0.44784075,343.72626,703.05235)" />
      <path
         id="path4463"
         d="m 175.08806,369.5618 c 0,4.62471 -4.08989,8.37377 -9.13503,8.37377 -5.04513,0 -9.13503,-3.74906 -9.13503,-8.37377 0,-4.62471 4.0899,-8.37378 9.13503,-8.37378 5.04514,0 9.13503,3.74907 9.13503,8.37378 z"
         style="fill:#000000;fill-opacity:1;fill-rule:nonzero;stroke:none"
         transform="matrix(0.41051987,0,0,0.44784075,386.24511,703.05235)" />
      <path
         id="path4465"
         d="m 168.99805,430.46201 c 0,24.80525 -21.81276,44.91389 -48.72016,44.91389 -26.907397,0 -48.720155,-20.10864 -48.720155,-44.91389 0,-1e-5 0,-1e-5 0,-1e-5 l 48.720155,1e-5 z"
         style="fill:#000000;fill-opacity:1;fill-rule:nonzero;stroke:none"
         transform="matrix(0.51315087,0,0,0.5000158,371.7727,665.82434)" />
      <path
         sodipodi:nodetypes="csssscccccccccscsscssc"
         id="path6581"
         d="m 429.29537,797.99371 c -0.64427,-10e-4 -1.24959,0.005 -1.84381,0.0156 -8.31851,0.15155 -12.40889,1.31538 -19.31311,4.95328 -17.05979,8.98896 -22.0287,14.96377 -28.29145,39.00815 -3.03694,11.65971 -3.95992,23.54784 -1.09378,14.12545 1.88586,-6.19965 5.69323,3.75124 14.55661,1.94626 -1.24149,2.55851 -4.35404,5.6562 -6.29705,7.76587 -0.54587,0.5327 -1.76261,0.45165 -2.42193,0.84378 3.47716,-0.64628 14.33576,-1.62137 25.2195,-3.0626 -1.26559,1.49914 -2.66978,2.95348 -3.73447,4.10951 -0.54591,0.5327 -1.74695,0.45166 -2.40632,0.84377 3.47891,-0.6466 14.3303,-1.6358 25.21954,-3.07822 -1.09473,1.24001 -2.23182,2.42085 -3.12509,3.39073 -0.54592,0.53271 -1.74696,0.45166 -2.40633,0.84378 6.55471,-1.21829 39.28379,-3.60655 49.11095,-8.09401 8.95008,-4.08703 12.6291,-7.68876 14.75202,-9.69329 1.41549,2.56487 -0.10481,5.28952 0.82417,8.34402 2.86619,9.4224 5.80664,-0.9032 2.76969,-12.5629 -3.06175,-11.75475 -6.3132,-20.00657 -11.90818,-28.07353 -0.017,-0.0222 -0.0295,-0.0403 -0.047,-0.0625 -10.52458,-13.57546 -27.34216,-21.33412 -47.5484,-21.54755 -0.69037,-0.007 -1.37139,-0.0148 -2.01566,-0.0156 z"
         style="fill:#784421;fill-opacity:1" />
    </g>
    <g
       id="g3792"
       transform="translate(74.751288,23.47826)">
      <path
         id="rect4398"
         d="m 755.28751,486.8548 c 5.90446,0 10.65787,5.7217 10.65787,12.82892 l 0,23.82513 c 0,7.10722 -4.75341,12.82892 -10.65787,12.82892 -5.90446,0 -10.65787,-5.7217 -10.65787,-12.82892 l 0,-23.82513 c 0,-7.10722 4.75341,-12.82892 10.65787,-12.82892 z"
         style="fill:#3a5065;fill-opacity:1;fill-rule:nonzero;stroke:none"
         transform="matrix(0.69200888,0.72188899,-0.72188899,0.69200888,0,0)" />
      <path
         id="rect4400"
         d="m 480.88486,773.10577 c 5.90446,0 10.65787,5.7217 10.65787,12.82892 l 0,23.82514 c 0,7.10722 -4.75341,12.82892 -10.65787,12.82892 -5.90446,0 -10.65787,-5.7217 -10.65787,-12.82892 l 0,-23.82514 c 0,-7.10722 4.75341,-12.82892 10.65787,-12.82892 z"
         style="fill:#3a5065;fill-opacity:1;fill-rule:nonzero;stroke:none"
         transform="matrix(-0.69200888,0.72188899,0.72188899,0.69200888,0,0)" />
      <path
         id="rect4402"
         d="m 159.44016,869.57306 77.6502,0 0,73.08255 -77.6502,0 0,-73.08255 z"
         style="fill:#3a5065;fill-opacity:1;fill-rule:nonzero;stroke:none" />
      <path
         id="rect4404"
         d="m 170.09803,926.28821 c 5.90446,0 10.65787,5.7217 10.65787,12.82892 l 0,23.82513 c 0,7.10722 -4.75341,12.82892 -10.65787,12.82892 -5.90446,0 -10.65787,-5.7217 -10.65787,-12.82892 l 0,-23.82513 c 0,-7.10722 4.75341,-12.82892 10.65787,-12.82892 z"
         style="fill:#3a5065;fill-opacity:1;fill-rule:nonzero;stroke:none" />
      <path
         id="rect4406"
         d="m 226.43245,926.28821 c 5.90446,0 10.65787,5.7217 10.65787,12.82892 l 0,23.82513 c 0,7.10722 -4.75341,12.82892 -10.65787,12.82892 -5.90446,0 -10.65787,-5.7217 -10.65787,-12.82892 l 0,-23.82513 c 0,-7.10722 4.75341,-12.82892 10.65787,-12.82892 z"
         style="fill:#3a5065;fill-opacity:1;fill-rule:nonzero;stroke:none" />
      <path
         id="path4410"
         d="m -88.305283,337.5892 c 0,74.41578 -59.303437,134.74169 -132.457927,134.74169 -73.1545,0 -132.45794,-60.32591 -132.45794,-134.74169 0,-74.41577 59.30344,-134.74168 132.45794,-134.74168 73.15449,0 132.457927,60.32591 132.457927,134.74168 z"
         style="fill:#deaa87;fill-opacity:1;fill-rule:nonzero;stroke:none"
         transform="matrix(0.37749028,0,0,0.37109213,281.98184,722.46204)" />
      <path
         id="path4412"
         d="m 175.08806,369.5618 c 0,4.62471 -4.08989,8.37377 -9.13503,8.37377 -5.04513,0 -9.13503,-3.74906 -9.13503,-8.37377 0,-4.62471 4.0899,-8.37378 9.13503,-8.37378 5.04514,0 9.13503,3.74907 9.13503,8.37378 z"
         style="fill:#000000;fill-opacity:1;fill-rule:nonzero;stroke:none"
         transform="matrix(0.41051987,0,0,0.44784075,108.87872,693.3975)" />
      <path
         id="path4414"
         d="m 175.08806,369.5618 c 0,4.62471 -4.08989,8.37377 -9.13503,8.37377 -5.04513,0 -9.13503,-3.74906 -9.13503,-8.37377 0,-4.62471 4.0899,-8.37378 9.13503,-8.37378 5.04514,0 9.13503,3.74907 9.13503,8.37378 z"
         style="fill:#000000;fill-opacity:1;fill-rule:nonzero;stroke:none"
         transform="matrix(0.41051987,0,0,0.44784075,151.39756,693.3975)" />
      <path
         id="path4416"
         d="m 168.99805,430.46201 c 0,24.80525 -21.81276,44.91389 -48.72016,44.91389 -26.907397,0 -48.720155,-20.10864 -48.720155,-44.91389 0,-1e-5 0,-1e-5 0,-1e-5 l 48.720155,1e-5 z"
         style="fill:#000000;fill-opacity:1;fill-rule:nonzero;stroke:none"
         transform="matrix(0.51315087,0,0,0.5000158,136.92516,656.1695)" />
      <path
         id="path6607"
         d="m 249.9305,823.05122 c 0.51112,-0.5656 1.11236,-1.11375 1.80535,-1.67092 3.89283,-3.12991 11.61096,-5.48823 17.07617,-5.22895 8.7,0.41273 15.27593,7.47352 14.94382,16.03341 -0.16391,4.22406 -8.78389,16.15814 -10.03341,18.67392 -0.0476,-0.2989 0.37855,-0.71086 0.2056,-0.99369 -0.7602,-1.05308 -1.7995,-2.69907 -3.07492,-3.56488 -0.78,-0.52036 -1.4968,-1.07568 -2.27386,-1.59734 -0.0264,0.072 -0.0279,0.1485 -0.0522,0.22204 -2.32806,-2.0757 -8.28873,-5.31185 -14.40449,-6.98189 l -8.58799,-2.35097 1.29921,-5.65658 c 0.75507,-3.26831 1.56322,-5.18737 3.09663,-6.88415 z"
         style="fill:#aa8800;fill-opacity:1" />
      <path
         id="path6609"
         d="m 194.04844,794.49372 c -7.29483,0.13292 -10.87781,1.1487 -16.93248,4.33895 -13.25093,6.98205 -22.62789,18.95548 -28.4148,36.24607 12.94159,5.6595 28.78583,9.09191 45.92933,9.52452 0.8513,-5.23169 2.80289,-16.35157 3.65107,-16.77373 1.03157,-0.51344 7.46253,11.86533 8.20166,13.38724 0.18862,0.38834 0.7451,1.58753 1.42868,3.12192 15.38458,-1.0597 29.49935,-4.56897 41.16708,-9.89491 -2.54104,-8.10687 -5.81581,-15.12572 -9.89492,-21.00685 -0.0152,-0.0195 -0.0377,-0.0334 -0.0528,-0.0528 -9.22944,-11.90497 -23.97652,-18.70312 -41.69622,-18.89029 -1.21086,-0.0136 -2.34435,-0.019 -3.3865,0 z m 53.33729,48.68086 c -0.23119,0.22068 -0.48831,0.46471 -0.79371,0.68788 0.2834,-0.20591 0.57498,-0.43145 0.79371,-0.63496 -0.007,-0.0136 0.007,-0.0395 0,-0.0528 z"
         style="fill:#aa8800;fill-opacity:1" />
      <path
         id="path6611"
         d="m 148.72242,823.05108 c -0.51112,-0.56559 -1.11236,-1.11375 -1.80535,-1.67089 -3.89283,-3.12992 -11.61096,-5.48826 -17.07617,-5.22897 -8.7,0.41274 -15.27593,7.47352 -14.94382,16.03341 0.16391,4.22406 8.78389,16.15813 10.03341,18.67391 0.0476,-0.29889 -0.37855,-0.71086 -0.2056,-0.99368 0.7602,-1.05308 1.7995,-2.69907 3.07492,-3.56488 0.78,-0.52037 1.4968,-1.07569 2.27386,-1.59734 0.0264,0.072 0.0279,0.1485 0.0522,0.22203 2.32806,-2.0757 8.28873,-5.31185 14.40449,-6.98188 l 8.58799,-2.35098 -1.29921,-5.65658 c -0.75507,-3.2683 -1.56322,-5.18736 -3.09663,-6.88415 z"
         style="fill:#aa8800;fill-opacity:1" />
    </g>
    <g
       id="g4778">
      <path
         id="rect3394"
         d="m 82.564123,905.62287 c 4.085814,4.26223 3.24481,11.6529 -1.885655,16.57101 l -17.198572,16.4867 c -5.130465,4.9181 -12.550065,5.44612 -16.635879,1.18389 -4.085814,-4.26224 -3.24481,-11.65291 1.885655,-16.57101 l 17.198571,-16.4867 c 5.130465,-4.91811 12.550066,-5.44612 16.63588,-1.18389 z"
         style="fill:#d45500;fill-opacity:1;fill-rule:nonzero;stroke:none" />
      <path
         id="rect3396"
         d="m 136.67189,905.62286 c -4.08582,4.26224 -3.24481,11.65291 1.88565,16.57102 l 17.19857,16.48669 c 5.13047,4.91811 12.55007,5.44613 16.63589,1.1839 4.08581,-4.26224 3.2448,-11.65291 -1.88566,-16.57102 l -17.19857,-16.4867 c -5.13047,-4.9181 -12.55007,-5.44612 -16.63588,-1.18389 z"
         style="fill:#d45500;fill-opacity:1;fill-rule:nonzero;stroke:none" />
      <path
         id="rect3398"
         d="m 70.794078,893.05471 77.647812,0 0,73.08033 -77.647812,0 0,-73.08033 z"
         style="fill:#d45500;fill-opacity:1;fill-rule:nonzero;stroke:none" />
      <path
         id="rect3400"
         d="m 81.451622,949.76804 c 5.904279,0 10.657543,5.7215 10.657543,12.8285 l 0,23.8244 c 0,7.107 -4.753264,12.8285 -10.657543,12.8285 -5.904279,0 -10.657544,-5.7215 -10.657544,-12.8285 l 0,-23.8244 c 0,-7.107 4.753265,-12.8285 10.657544,-12.8285 z"
         style="fill:#d45500;fill-opacity:1;fill-rule:nonzero;stroke:none" />
      <path
         id="path3404"
         d="m 159.99864,871.22107 c 0,27.61426 -22.38578,50.00004 -50.00004,50.00004 -27.61426,0 -50.000043,-22.38578 -50.000043,-50.00004 0,-27.61426 22.385783,-50.00004 50.000043,-50.00004 27.61426,0 50.00004,22.38578 50.00004,50.00004 z"
         style="fill:#deaa87;fill-opacity:1;fill-rule:nonzero;stroke:none" />
      <path
         id="rect3408"
         d="m 137.78436,949.76804 c 5.90428,0 10.65755,5.7215 10.65755,12.8285 l 0,23.8244 c 0,7.107 -4.75327,12.8285 -10.65755,12.8285 -5.90428,0 -10.65754,-5.7215 -10.65754,-12.8285 l 0,-23.8244 c 0,-7.107 4.75326,-12.8285 10.65754,-12.8285 z"
         style="fill:#d45500;fill-opacity:1;fill-rule:nonzero;stroke:none" />
      <path
         id="path3410"
         d="m 92.109165,882.38449 c 0,2.07107 -1.678933,3.75 -3.750004,3.75 -2.071066,0 -3.750003,-1.67893 -3.750003,-3.75 0,-2.07107 1.678937,-3.75001 3.750003,-3.75001 2.071071,0 3.750004,1.67894 3.750004,3.75001 z"
         style="fill:#000000;fill-opacity:1;fill-rule:nonzero;stroke:none" />
      <path
         id="path3412"
         d="m 134.6268,882.38449 c 0,2.07107 -1.67893,3.75 -3.75,3.75 -2.07107,0 -3.75001,-1.67893 -3.75001,-3.75 0,-2.07107 1.67894,-3.75001 3.75001,-3.75001 2.07107,0 3.75,1.67894 3.75,3.75001 z"
         style="fill:#000000;fill-opacity:1;fill-rule:nonzero;stroke:none" />
      <path
         id="path3414"
         d="m 134.99866,894.88891 c 0,12.40263 -11.19289,22.45696 -25.00002,22.45696 -13.807133,0 -25.000024,-10.05433 -25.000024,-22.45696 0,-10e-6 0,-10e-6 0,-10e-6 l 25.000024,10e-6 z"
         style="fill:#000000;fill-opacity:1;fill-rule:nonzero;stroke:none" />
      <path
         id="path6557"
         d="m 89.68325,763.48185 c -1.578551,0.0637 -3.118852,0.30327 -4.625003,0.78125 -3.698153,1.17375 -3.779853,1.50937 -0.781201,3.1875 4.115453,2.30311 7.212906,10.05899 5.640605,14.15626 -0.842151,2.19474 -2.738203,2.79609 -6.484406,2.04688 -6.305605,-1.26114 -17.903764,1.61977 -20.890616,5.21875 -1.717602,2.06952 -1.191501,2.44972 2.468752,1.75 5.427004,-1.03744 16.562463,4.24456 16.562513,7.85938 0,1.39611 -1.950952,3.47863 -4.328154,4.62501 l -4.312503,2.09375 4.375003,0.125 c 5.958605,0.17671 17.790515,5.27975 22.515668,9.71876 0.904302,0.84952 2.022802,1.54803 3.406252,2.125 -0.40725,0.002 -0.81755,0.009 -1.2031,0.0156 -8.275406,0.15076 -12.35026,1.30285 -19.218815,4.92188 -16.971214,8.94232 -28.332073,25.06481 -34.562528,48.98441 -3.021102,11.59921 -3.945153,23.42038 -1.093701,14.04689 1.615302,-5.31038 4.106754,-10.55702 7.343706,-15.53127 -0.2237,0.79533 -0.4444,1.59289 -0.6562,2.40626 -3.021203,11.59921 -3.945103,23.42039 -1.093801,14.04688 1.733151,-5.69762 4.472503,-11.32123 8.062506,-16.60939 -0.3395,1.16397 -0.6709,2.34345 -0.984351,3.54688 -3.021202,11.59919 -3.945103,23.4204 -1.09375,14.04689 2.813652,-9.24981 8.267006,-18.29919 15.734412,-26.0469 2.343502,-2.43152 4.949204,-5.53273 7.125006,-8.4375 4.290503,8.22764 13.634061,16.5536 25.937516,22.17189 9.77601,4.46415 42.33869,6.83491 48.85939,8.04688 -0.65595,-0.3901 -1.8476,-0.31381 -2.39065,-0.84375 -1.95165,-2.1191 -5.10206,-5.2377 -6.31251,-7.79688 -0.7193,-1.55499 -1.5573,-3.07229 -2.2812,-4.62501 0.18115,0.0464 0.36385,0.13655 0.54685,0.18751 -1.78735,-2.78955 -3.69315,-7.26147 -5.10935,-12.26564 1.0675,1.42194 2.4125,3.27347 3.2031,4.09375 7.46736,7.74771 13.63951,15.54704 16.45311,24.7969 2.85136,9.37352 1.94311,-2.44769 -1.0781,-14.04689 -0.6977,-2.67869 -1.46775,-5.252 -2.2969,-7.73438 4.5312,5.51125 8.13086,11.25044 10.09381,17.70314 2.8513,9.37353 1.943,-2.44767 -1.07815,-14.04689 -3.04585,-11.69375 -7.34016,-21.50617 -12.90626,-29.53127 -0.017,-0.0222 -0.0455,-0.0404 -0.0625,-0.0625 -7.33906,-9.46651 -17.75447,-16.07975 -30.25003,-19.26564 4.44126,-0.35215 6.55291,-1.93898 11.90626,-6.68751 6.95186,-6.16641 9.43371,-7.17794 17.28127,-7.20313 11.38216,-0.0365 7.82725,-3.14698 -5.70311,-4.98438 -13.42876,-1.82357 -12.10326,-5.58982 2.87501,-8.17188 l 8.17185,-1.375 -8.53126,-5.10938 c -8.88205,-5.3154 -8.4806,-6.5221 2.76561,-7.67188 l 5.76565,-0.60937 -6.125,-3.29688 c -9.43461,-5.11861 -22.12042,-4.41946 -29.35938,1.67188 l -6,5.04687 -6.5938,-7.6875 c -5.60056,-6.54307 -12.846664,-10.05727 -19.68752,-9.78126 z"
         style="fill:#aa0000;fill-opacity:1" />
    </g>
    <g
       id="g4684"
       transform="translate(241.42646,-321.49126)">
      <path
         id="path2775"
         d="m -88.305283,337.5892 c 0,74.41578 -59.303437,134.74169 -132.457927,134.74169 -73.1545,0 -132.45794,-60.32591 -132.45794,-134.74169 0,-74.41577 59.30344,-134.74168 132.45794,-134.74168 73.15449,0 132.457927,60.32591 132.457927,134.74168 z"
         style="fill:#ffcc00;fill-opacity:1;fill-rule:nonzero;stroke:none"
         transform="matrix(0.46943184,0,0,0.57729436,454.99033,1001.322)" />
      <path
         id="rect2777"
         d="m 1109.9991,615.33612 c 5.9042,0 10.6575,5.72151 10.6575,12.8285 l 0,23.82435 c 0,7.10699 -4.7533,12.8285 -10.6575,12.8285 -5.9043,0 -10.6575,-5.72151 -10.6575,-12.8285 l 0,-23.82435 c 0,-7.10699 4.7532,-12.8285 10.6575,-12.8285 z"
         style="fill:#550000;fill-opacity:1;fill-rule:nonzero;stroke:none"
         transform="matrix(0.69200888,0.72188899,-0.72188899,0.69200888,0,0)" />
      <path
         id="rect2779"
         d="m 624.23833,1122.0715 c 5.90427,0 10.65752,5.7215 10.65752,12.8285 l 0,23.8244 c 0,7.107 -4.75325,12.8285 -10.65752,12.8285 -5.90426,0 -10.65752,-5.7215 -10.65752,-12.8285 l 0,-23.8244 c 0,-7.107 4.75326,-12.8285 10.65752,-12.8285 z"
         style="fill:#550000;fill-opacity:1;fill-rule:nonzero;stroke:none"
         transform="matrix(-0.69200888,0.72188899,0.72188899,0.69200888,0,0)" />
      <path
         id="rect2781"
         d="m 312.15485,1214.546 77.64766,0 0,73.0802 -77.64766,0 0,-73.0802 z"
         style="fill:#550000;fill-opacity:1;fill-rule:nonzero;stroke:none" />
      <path
         id="rect2783"
         d="m 322.81237,1271.2594 c 5.90427,0 10.65752,5.7215 10.65752,12.8285 l 0,23.8243 c 0,7.107 -4.75325,12.8285 -10.65752,12.8285 -5.90427,0 -10.65752,-5.7215 -10.65752,-12.8285 l 0,-23.8243 c 0,-7.107 4.75325,-12.8285 10.65752,-12.8285 z"
         style="fill:#550000;fill-opacity:1;fill-rule:nonzero;stroke:none" />
      <path
         id="path2785"
         d="m -88.305283,337.5892 c 0,74.41578 -59.303437,134.74169 -132.457927,134.74169 -73.1545,0 -132.45794,-60.32591 -132.45794,-134.74169 0,-74.41577 59.30344,-134.74168 132.45794,-134.74168 73.15449,0 132.457927,60.32591 132.457927,134.74168 z"
         style="fill:#e9afaf;fill-opacity:1;fill-rule:nonzero;stroke:none"
         transform="matrix(0.3774779,0,0,0.37107995,435.07315,1067.4399)" />
      <path
         id="rect2787"
         d="m 379.14498,1271.2594 c 5.90427,0 10.65752,5.7215 10.65752,12.8285 l 0,23.8243 c 0,7.107 -4.75325,12.8285 -10.65752,12.8285 -5.90427,0 -10.65752,-5.7215 -10.65752,-12.8285 l 0,-23.8243 c 0,-7.107 4.75325,-12.8285 10.65752,-12.8285 z"
         style="fill:#550000;fill-opacity:1;fill-rule:nonzero;stroke:none" />
      <path
         id="path4287"
         d="m 175.08806,369.5618 c 0,4.62471 -4.08989,8.37377 -9.13503,8.37377 -5.04513,0 -9.13503,-3.74906 -9.13503,-8.37377 0,-4.62471 4.0899,-8.37378 9.13503,-8.37378 5.04514,0 9.13503,3.74907 9.13503,8.37378 z"
         style="fill:#000000;fill-opacity:1;fill-rule:nonzero;stroke:none"
         transform="matrix(0.41050721,0,0,0.44782606,261.59499,1038.3765)" />
      <path
         id="path4289"
         d="m 175.08806,369.5618 c 0,4.62471 -4.08989,8.37377 -9.13503,8.37377 -5.04513,0 -9.13503,-3.74906 -9.13503,-8.37377 0,-4.62471 4.0899,-8.37378 9.13503,-8.37378 5.04514,0 9.13503,3.74907 9.13503,8.37378 z"
         style="fill:#000000;fill-opacity:1;fill-rule:nonzero;stroke:none"
         transform="matrix(0.41050721,0,0,0.44782606,304.11254,1038.3765)" />
      <path
         id="path4291"
         d="m 168.99805,430.46201 c 0,24.80525 -21.81276,44.91389 -48.72016,44.91389 -26.907397,0 -48.720155,-20.10864 -48.720155,-44.91389 0,-1e-5 0,-1e-5 0,-1e-5 l 48.720155,1e-5 z"
         style="fill:#000000;fill-opacity:1;fill-rule:nonzero;stroke:none"
         transform="matrix(0.51313403,0,0,0.4999994,289.64063,1001.1495)" />
      <path
         id="path2821"
         d="m 350.5968,1138.73 c -5.68082,0 -10.73798,1.5341 -13.93749,3.9063 -3.50826,-1.5254 -7.42261,-2.375 -11.56248,-2.375 -14.91749,0 -27.03121,11.0775 -27.03122,24.7343 0,13.6569 12.11373,24.75 27.03122,24.75 7.56284,0 14.40579,-2.8489 19.31247,-7.4375 4.46085,4.294 10.33316,7.9304 17.18748,10.2812 18.48298,6.3391 37.08501,0.9964 41.51555,-11.9218 4.43055,-12.9182 -6.97009,-28.5515 -25.45307,-34.8906 -4.17823,-1.433 -8.36574,-2.2601 -12.39061,-2.5469 -3.12552,-2.7069 -8.53037,-4.5 -14.67185,-4.5 z"
         style="fill:#ffcc00;fill-opacity:1;fill-rule:nonzero;stroke:none" />
    </g>
    <g
       id="g4755"
       transform="translate(-61.619305,-347.49247)">
      <path
         id="rect2804"
         d="m 796.87511,967.66071 c 5.90413,0 10.65728,5.72138 10.65728,12.8282 l 0,23.82379 c 0,7.1068 -4.75315,12.8282 -10.65728,12.8282 -5.90413,0 -10.65728,-5.7214 -10.65728,-12.8282 l 0,-23.82379 c 0,-7.10682 4.75315,-12.8282 10.65728,-12.8282 z"
         style="fill:#0078c1;fill-opacity:1;fill-rule:nonzero;stroke:none"
         transform="matrix(0.76620884,0.64259163,-0.64259163,0.76620884,0,0)" />
      <path
         id="rect2806"
         d="m -811.7494,923.75244 c 5.90414,0 10.65728,5.72138 10.65728,12.82821 l 0,23.82381 c 0,7.10683 -4.75314,12.82821 -10.65728,12.82821 -5.90413,0 -10.65728,-5.72138 -10.65728,-12.82821 l 0,-23.82381 c 0,-7.10683 4.75315,-12.82821 10.65728,-12.82821 z"
         style="fill:#0078c1;fill-opacity:1;fill-rule:nonzero;stroke:none"
         transform="matrix(-0.79267258,-0.60964759,-0.60964759,0.79267258,0,0)" />
      <path
         id="rect2808"
         d="m -158.86865,1232.3173 77.645895,0 0,73.0785 -77.645895,0 0,-73.0785 z"
         style="fill:#0078c1;fill-opacity:1;fill-rule:nonzero;stroke:none"
         transform="matrix(0.99410315,-0.10843861,0.10843861,0.99410315,0,0)" />
      <path
         id="rect2810"
         d="m -148.21137,1289.0293 c 5.90413,0 10.65727,5.7214 10.65727,12.8282 l 0,23.8238 c 0,7.1068 -4.75314,12.8282 -10.65727,12.8282 -5.90414,0 -10.65728,-5.7214 -10.65728,-12.8282 l 0,-23.8238 c 0,-7.1068 4.75314,-12.8282 10.65728,-12.8282 z"
         style="fill:#0078c1;fill-opacity:1;fill-rule:nonzero;stroke:none"
         transform="matrix(0.99410315,-0.10843861,0.10843861,0.99410315,0,0)" />
      <path
         id="rect2818"
         d="m -723.42866,1077.9923 c 5.90413,0 10.65727,5.7214 10.65727,12.8282 l 0,23.8238 c 0,7.1068 -4.75314,12.8282 -10.65727,12.8282 -5.90413,0 -10.65728,-5.7214 -10.65728,-12.8282 l 0,-23.8238 c 0,-7.1068 4.75315,-12.8282 10.65728,-12.8282 z"
         style="fill:#0078c1;fill-opacity:1;fill-rule:nonzero;stroke:none"
         transform="matrix(0.81053353,-0.58569223,0.58569223,0.81053353,0,0)" />
      <path
         id="path2812"
         d="m -88.305283,337.5892 c 0,74.41578 -59.303437,134.74169 -132.457927,134.74169 -73.1545,0 -132.45794,-60.32591 -132.45794,-134.74169 0,-74.41577 59.30344,-134.74168 132.45794,-134.74168 73.15449,0 132.457927,60.32591 132.457927,134.74168 z"
         style="fill:#000000;fill-opacity:1;fill-rule:nonzero;stroke:none"
         transform="matrix(0.46379651,-0.0505918,0.04973429,0.45593555,95.441782,1028.6696)" />
      <path
         id="path2814"
         d="m -88.305283,337.5892 c 0,74.41578 -59.303437,134.74169 -132.457927,134.74169 -73.1545,0 -132.45794,-60.32591 -132.45794,-134.74169 0,-74.41577 59.30344,-134.74168 132.45794,-134.74168 73.15449,0 132.457927,60.32591 132.457927,134.74168 z"
         style="fill:#d38d5f;fill-opacity:1;fill-rule:nonzero;stroke:none"
         transform="matrix(0.37524347,-0.04093225,0.04023848,0.36888342,81.559663,1082.7551)" />
      <path
         id="path2816"
         d="m -88.305283,337.5892 c 0,74.41578 -59.303437,134.74169 -132.457927,134.74169 -73.1545,0 -132.45794,-60.32591 -132.45794,-134.74169 0,-74.41577 59.30344,-134.74168 132.45794,-134.74168 73.15449,0 132.457927,60.32591 132.457927,134.74168 z"
         style="fill:#000000;fill-opacity:1;fill-rule:nonzero;stroke:none"
         transform="matrix(0.37524347,-0.04093225,0.02094055,0.19197093,85.03515,1114.6164)" />
      <path
         id="path2820"
         d="m 175.08806,369.5618 c 0,4.62471 -4.08989,8.37377 -9.13503,8.37377 -5.04513,0 -9.13503,-3.74906 -9.13503,-8.37377 0,-4.62471 4.0899,-8.37378 9.13503,-8.37378 5.04514,0 9.13503,3.74907 9.13503,8.37378 z"
         style="fill:#000000;fill-opacity:1;fill-rule:nonzero;stroke:none"
         transform="matrix(0.40807729,-0.04451382,0.04856053,0.4451752,-93.664793,1072.6338)" />
      <path
         id="path2822"
         d="m 175.08806,369.5618 c 0,4.62471 -4.08989,8.37377 -9.13503,8.37377 -5.04513,0 -9.13503,-3.74906 -9.13503,-8.37377 0,-4.62471 4.0899,-8.37378 9.13503,-8.37378 5.04514,0 9.13503,3.74907 9.13503,8.37378 z"
         style="fill:#000000;fill-opacity:1;fill-rule:nonzero;stroke:none"
         transform="matrix(0.40807729,-0.04451382,0.04856053,0.4451752,-51.398923,1068.0233)" />
      <path
         id="path2824"
         d="m 168.99805,430.46201 c 0,24.80525 -21.81276,44.91389 -48.72016,44.91389 -26.907397,0 -48.720155,-20.10864 -48.720155,-44.91389 0,-1e-5 0,-1e-5 0,-1e-5 l 48.720155,1e-5 z"
         style="fill:#000000;fill-opacity:1;fill-rule:nonzero;stroke:none"
         transform="matrix(0.51009661,-0.05564228,0.05421801,0.49703972,-69.821911,1032.586)" />
    </g>
  </g>
</svg>
